<svg width="1024" height="1024" viewBox="0 0 1024 1024" xmlns="http://www.w3.org/2000/svg">
  <defs>
    <linearGradient id="bgGradient" x1="0" y1="0" x2="1" y2="1">
      <stop offset="0%" stop-color="#0f766e" />
      <stop offset="100%" stop-color="#115e59" />
    </linearGradient>
    <linearGradient id="coinGradient" x1="0" y1="0" x2="1" y2="1">
      <stop offset="0%" stop-color="#fbbf24" />
      <stop offset="100%" stop-color="#f59e0b" />
    </linearGradient>
    <filter id="shadow" x="-20%" y="-20%" width="140%" height="140%">
      <feDropShadow dx="0" dy="16" stdDeviation="24" flood-color="#0f172a" flood-opacity="0.3" />
    </filter>
  </defs>

  <rect width="1024" height="1024" rx="212" fill="url(#bgGradient)" />

  <!-- Target rings -->
  <g transform="translate(512 440)">
    <circle r="260" fill="none" stroke="#0f172a" stroke-opacity="0.25" stroke-width="28" />
    <circle r="200" fill="none" stroke="#a5f3fc" stroke-opacity="0.5" stroke-width="26" />
    <circle r="140" fill="none" stroke="#fef9c3" stroke-opacity="0.9" stroke-width="24" />
    <circle r="80" fill="#0f172a" opacity="0.25" />
  </g>

  <!-- Coin -->
  <g transform="translate(620 620)" filter="url(#shadow)">
    <circle r="160" fill="url(#coinGradient)" />
    <circle r="140" fill="none" stroke="#fde68a" stroke-width="24" opacity="0.9" />
    <path d="M0 -86
             c-58 0 -92 34 -92 80
             0 40 28 63 64 73
             30 8 46 14 46 32
             0 16 -14 28 -40 28
             -26 0 -46 -12 -58 -24l-36 40
             c20 22 52 36 90 38v36h48v-40
             c54 -8 88 -44 88 -88
             0 -42 -26 -66 -70 -78
             -34 -8 -54 -14 -54 -30
             0 -14 12 -24 36 -24
             20 0 40 8 54 20l34 -40
             c-18 -18 -46 -32 -84 -35v-38h-48v36z"
          fill="#1e293b" />
    <circle r="116" fill="none" stroke="#fde68a" stroke-opacity="0.6" stroke-width="12" />
  </g>

  <!-- Arrow -->
  <g transform="translate(340 300) rotate(-18)">
    <rect x="-24" y="0" width="48" height="360" rx="20" fill="#38bdf8" />
    <polygon points="0,-120 96,40 -96,40" fill="#bae6fd" />
  </g>
</svg>

